# xmcd
#
# Track frame offsets:
#	150
#	19952
#	37981
#	53683
#	67114
#	80361
#	98986
#	116226
#	140485
#	160360
#	177224
#	201054
#	213916
#	233985
#	244782
#	260331
#	284473
#	297052
#	316137
#
# Disc length: 4517 seconds
#
# Revision: 2
# Processed by: cddbd v1.5.2PL0 Copyright (c) Steve Scherf et al.
# Submitted via: EZCDDA 4.3.2
#
DISCID=1511a313
DTITLE=Kern András - Ez van
DYEAR=1900
DGENRE=
TTITLE0=Te majd kézenfogsz és hazavezetsz
TTITLE1=A szomorú bárzongorista dala
TTITLE2=Ez van
TTITLE3=A tükör
TTITLE4=Halálos tangó
TTITLE5=Annyira mégse rossz
TTITLE6=Pesten születtem
TTITLE7=Guváti
TTITLE8=Szerelmünk tárgytalan
TTITLE9=Az élet szép
TTITLE10=Én nem megyek moziba többé
TTITLE11=Mikor leszek szemüveges
TTITLE12=Szép kezû lány
TTITLE13=Esik
TTITLE14=10 perces szerelem
TTITLE15=Látlak Amerika
TTITLE16=Pincér-rock
TTITLE17=Lövölde tér
TTITLE18=Leszállás
EXTD=
EXTT0=
EXTT1=
EXTT2=
EXTT3=
EXTT4=
EXTT5=
EXTT6=
EXTT7=
EXTT8=
EXTT9=
EXTT10=
EXTT11=
EXTT12=
EXTT13=
EXTT14=
EXTT15=
EXTT16=
EXTT17=
EXTT18=
PLAYORDER=
